<?xml version="1.0" standalone="no"?>
  <!DOCTYPE svg PUBLIC "-//W3C//DTD SVG 1.1//EN" "http://www.w3.org/Graphics/SVG/1.1/DTD/svg11.dtd" >
  <svg>
  <metadata>
  Created by font-carrier
  </metadata>
  <defs>
  <font id="Technology-Regular" horiz-adv-x="498" vert-adv-y="498" >
    <font-face
      
      font-family="Technology"
      
      font-weight="400"
      
      font-stretch="normal"
      
      units-per-em="1000"
      
      ascent="750"
      
      descent="-250"
      
    />
      <missing-glyph />

      

      
      <glyph glyph-name="uni45" unicode="&#x45;" d="M392 690L317 615L131 615L57 690L392 690L392 690M112 597L112 410L57 354L38 373L38 671L112 597L112 597M327 382L364 345L327 308L121 308L84 345L121 382L327 382L327 382M112 280L112 94L38 19L38 317L57 336L112 280L112 280M392 0L57 0L131 75L317 75L392 0L392 0Z"  horiz-adv-x="412" vert-adv-y="1000"  />

      
      <glyph glyph-name="uni46" unicode="&#x46;" d="M110 279L110 74L36 0L36 316L55 335L110 279L110 279M362 344L325 307L119 307L82 344L119 382L325 382L362 344L362 344M390 689L315 614L129 614L55 689L390 689L390 689M110 596L110 409L55 354L36 372L36 670L110 596L110 596Z"  horiz-adv-x="404" vert-adv-y="1000"  />

      
      <glyph glyph-name="uni47" unicode="&#x47;" d="M373 19L355 0L94 0L75 19L131 74L317 74L373 19L373 19M411 56L392 37L336 93L336 279L392 335L411 317L411 56L411 56M413 689L338 615L131 615L75 671L94 689L413 689L413 689M112 93L57 37L38 56L38 317L57 335L112 279L112 93L112 93M112 410L57 354L38 373L38 633L57 652L112 596L112 410L112 410M364 345L327 307L209 307L172 345L209 382L327 382L364 345L364 345Z"  horiz-adv-x="447" vert-adv-y="1000"  />

      
      <glyph glyph-name="uni48" unicode="&#x48;" d="M411 0L337 75L337 280L393 336L411 317L411 0L411 0M411 690L411 373L393 354L337 410L337 615L411 690L411 690M113 615L113 410L57 354L39 373L39 690L113 615L113 615M365 345L328 308L122 308L85 345L122 382L328 382L365 345L365 345M113 75L39 0L39 317L57 336L113 280L113 75L113 75Z"  horiz-adv-x="447" vert-adv-y="1000"  />

      
      <glyph glyph-name="uni49" unicode="&#x49;" d="M109 372L90 354L34 410L34 633L90 689L109 670L109 372L109 372M109 18L90 0L34 56L34 279L90 335L109 316L109 18L109 18Z"  horiz-adv-x="145" vert-adv-y="1000"  />

      
      <glyph glyph-name="uni4a" unicode="&#x4a;" d="M410 373L392 354L336 410L336 615L410 689L410 373L410 373M410 19L336 93L336 279L392 335L410 317L410 19L410 19M392 0L56 0L131 75L317 75L392 0L392 0M112 93L38 19L38 273L112 199L112 93L112 93Z"  horiz-adv-x="447" vert-adv-y="1000"  />

      
      <glyph glyph-name="uni4b" unicode="&#x4b;" d="M410 316L410 0L336 74L336 279L392 335L410 316M410 689L410 636L182 408L138 408L138 470L358 689L410 689M112 614L112 409L56 354L38 372L38 689L112 614M364 344L327 307L121 307L84 344L121 382L327 382L364 344M112 279L112 74L38 0L38 316Q43 321 47 325.50Q51 330 56 335L112 279Z"  horiz-adv-x="447" vert-adv-y="1000"  />

      
      <glyph glyph-name="uni4d" unicode="&#x4d;" d="M463 0L388 75L388 280L444 336L463 317L463 0L463 0M463 671L463 373L444 354L388 410L388 596L463 671L463 671M284 373L246 336L209 373L209 589L284 589L284 373L284 373M444 690L370 615L128 615L53 690L444 690L444 690M109 596L109 410L53 354L34 373L34 671L109 596L109 596M109 75L34 0L34 317L53 336L109 280L109 75L109 75Z"  horiz-adv-x="498" vert-adv-y="1000"  />

      
      <glyph glyph-name="uni4e" unicode="&#x4e;" d="M411 18L393 0L337 56L337 279L393 335L411 316L411 18L411 18M411 372L393 354L337 410L337 633L393 689L411 670L411 372L411 372M311 487L311 410L283 410L139 553L139 633L165 633L311 487L311 487M113 410L57 354L39 372L39 670L57 689L113 633L113 410L113 410M113 56L57 0L39 18L39 316L57 335L113 279L113 56L113 56Z"  horiz-adv-x="447" vert-adv-y="1000"  />

      
      <glyph glyph-name="uni4c" unicode="&#x4c;" d="M112 410L57 354L38 373L38 690L112 615L112 410L112 410M392 0L57 0L131 75L317 75L392 0L392 0M112 94L38 19L38 317L57 336L112 280L112 94L112 94Z"  horiz-adv-x="408" vert-adv-y="1000"  />

      
      <glyph glyph-name="uni4f" unicode="&#x4f;" d="M411 56L392 38L336 93L336 280L392 336L411 317L411 56L411 56M411 373L392 354L336 410L336 597L392 652L411 634L411 373L411 373M373 671L318 615L131 615L75 671L94 690L355 690L373 671L373 671M113 410L57 354L38 373L38 634L57 652L113 597L113 410L113 410M113 93L57 38L38 56L38 317L57 336L113 280L113 93L113 93M373 19L355 0L94 0L75 19L131 75L318 75L373 19L373 19Z"  horiz-adv-x="447" vert-adv-y="1000"  />

      
      <glyph glyph-name="uni50" unicode="&#x50;" d="M410 372L391 354L335 410L335 596L391 652L410 633L410 372M373 670L317 615L130 615Q111 633 92 651Q73 669 56 689L354 689L373 670M112 410L56 354L37 372L37 670L112 596L112 410M326 382L364 344L326 307L121 307L83 344L121 382L326 382M112 74L37 0L37 316L56 335L112 279L112 74Z"  horiz-adv-x="437" vert-adv-y="1000"  />

      
      <glyph glyph-name="uni51" unicode="&#x51;" d="M251 75L325 0L95 0L77 19L133 75L251 75L251 75M412 53L412 0L360 0L249 111L249 173L293 173L412 53L412 53M412 87L338 162L338 280L393 336L412 317L412 87L412 87M412 373L393 354L338 410L338 597L393 653L412 634L412 373L412 373M375 671L319 615L133 615L77 671L95 690L356 690L375 671L375 671M114 410L58 354L40 373L40 634L58 653L114 597L114 410L114 410M114 94L58 38L40 56L40 317L58 336L114 280L114 94L114 94Z"  horiz-adv-x="447" vert-adv-y="1000"  />

      
      <glyph glyph-name="uni52" unicode="&#x52;" d="M411 53L411 0L358 0L139 220L139 282L183 282L411 53L411 53M113 75L39 0L39 317L57 336L113 280L113 75L113 75M374 671L318 615L132 615L57 690L355 690L374 671L374 671M411 373L393 354L337 410L337 596L393 652L411 634L411 373L411 373M328 382L365 345L328 308L122 308L85 345L122 382L328 382L328 382M113 410L57 354L39 373L39 671L113 596L113 410L113 410Z"  horiz-adv-x="447" vert-adv-y="1000"  />

      
      <glyph glyph-name="uni53" unicode="&#x53;" d="M411 689L336 615L131 615L75 671L94 689L411 689L411 689M112 410L57 354L38 373L38 634L57 652L112 596L112 410L112 410M364 345L327 307L121 307L84 345L121 382L327 382L364 345L364 345M411 56L392 37L336 93L336 279L392 335L411 317L411 56L411 56M373 19L355 0L38 0L112 74L132 75L317 75L373 19L373 19Z"  horiz-adv-x="447" vert-adv-y="1000"  />

      
      <glyph glyph-name="uni54" unicode="&#x54;" d="M255 19L236 0L180 56L180 279L236 335L255 317L255 19L255 19M255 373L236 354L180 410L180 591L255 591L255 373L255 373M399 689L418 671L362 615L74 615L18 671L36 689L399 689L399 689Z"  horiz-adv-x="435" vert-adv-y="1000"  />

      
      <glyph glyph-name="uni55" unicode="&#x55;" d="M390 0L55 0L129 74L316 74L390 0L390 0M409 317L409 19L334 93L334 279L390 335L409 317L409 317M409 373L390 354L334 410L334 615L409 689L409 373L409 373M111 410L55 354L36 373L36 689L111 615L111 410L111 410M111 279L111 93L36 19L36 317L55 335L111 279L111 279Z"  horiz-adv-x="447" vert-adv-y="1000"  />

      
      <glyph glyph-name="uni56" unicode="&#x56;" d="M395 339L404 314Q366 236 329.50 157.50Q293 79 257 0L234 0L234 127Q234 130 246 156Q258 182 273 214Q288 246 302 274.50Q316 303 320 312L395 339M408 373L390 354L334 410L334 615L408 690L408 373M110 410L54 354L36 373L36 690L110 615L110 410M210 127L210 0L187 0L41 314L50 339L124 312Q128 303 142 274.50Q156 246 171 214Q186 182 198 156Q210 130 210 127Z"  horiz-adv-x="439" vert-adv-y="1000"  />

      
      <glyph glyph-name="uni57" unicode="&#x57;" d="M464 373L445 354L389 410L389 615L464 690L464 373L464 373M464 317L464 19L389 94L389 280L445 336L464 317L464 317M445 0L54 0L129 75L371 75L445 0L445 0M289 101L215 101L215 317L252 354L289 317L289 101L289 101M110 410L54 354L35 373L35 690L110 615L110 410L110 410M110 280L110 94L35 19L35 317L54 336L110 280L110 280Z"  horiz-adv-x="498" vert-adv-y="1000"  />

      
      <glyph glyph-name="uni58" unicode="&#x58;" d="M261 333L390 24L380 0L320 0Q317 6 309 25Q301 44 290 70Q279 96 267 124.50Q255 153 245 177Q235 201 228.50 216.50Q222 232 222 233L222 333L261 333M198 333L198 233Q198 232 191.50 216.50Q185 201 175 177Q165 153 153 124.50Q141 96 130 70Q119 44 111 25Q103 6 100 0L40 0L30 24L159 333L198 333M198 456L198 357L159 357L30 665L40 689L100 689Q102 683 110.50 664Q119 645 130 619Q141 593 153 564.50Q165 536 175 512Q185 488 191.50 472Q198 456 198 456M380 689L390 665L261 357L222 357L222 456Q222 456 228.50 472Q235 488 245 512Q255 536 267 564.50Q279 593 290 619Q301 645 309.50 664Q318 683 320 689L380 689Z"  horiz-adv-x="416" vert-adv-y="1000"  />

      
      <glyph glyph-name="uni59" unicode="&#x59;" d="M410 372L391 354L335 410L335 614L410 689L410 372L410 372M410 56L391 37L335 93L335 279L391 335L410 316L410 56L410 56M373 18L354 0L37 0L112 74L317 74L373 18L373 18M363 344L326 307L120 307L83 344L120 382L326 382L363 344L363 344M111 410L55 354L37 372L37 689L111 614L111 410L111 410Z"  horiz-adv-x="447" vert-adv-y="1000"  />

      
      <glyph glyph-name="uni5a" unicode="&#x5a;" d="M337 74L393 18L374 0L55 0L25 30L45 74L337 74M209 333L226 292L138 99L56 99L154 314L186 333L209 333M362 590Q356 576 343.50 546.50Q331 517 317.50 485.50Q304 454 291 427.50Q278 401 271 392Q270 391 263 386Q256 381 247.50 375Q239 369 231.50 363.50Q224 358 221 356L190 356L182 375L280 590L362 590M393 658L373 615L81 615L25 671L44 689L362 689L393 658Z"  horiz-adv-x="422" vert-adv-y="1000"  />

      
      <glyph glyph-name="uni61" unicode="&#x61;" d="M409 0L335 74L335 279L391 335L409 316L409 0L409 0M409 670L409 372L391 354L335 409L335 596L409 670L409 670M391 689L316 614L130 614L55 689L391 689L391 689M111 596L111 409L55 354L37 372L37 670L111 596L111 596M363 344L326 307L120 307L83 344L120 382L326 382L363 344L363 344M111 74L37 0L37 316L55 335L111 279L111 74L111 74Z"  horiz-adv-x="447" vert-adv-y="1000"  />

      
      <glyph glyph-name="uni62" unicode="&#x62;" d="M373 18L355 0L57 0L131 74L318 74L373 18M411 55L392 37L336 93L336 279L392 335L411 316L411 55M411 372L392 354L336 409L336 596L392 652L411 633L411 372M373 670L318 614L131 614Q112 633 93.50 651Q75 669 57 689L355 689L373 670M113 409L57 354L38 372L38 670L113 596L113 409M365 344L327 307L122 307L84 344L122 382L327 382L365 344M113 93L38 18L38 316L57 335L113 279L113 93Z"  horiz-adv-x="447" vert-adv-y="1000"  />

      
      <glyph glyph-name="uni63" unicode="&#x63;" d="M391 689L316 615L130 615L74 671L93 689L391 689L391 689M111 410L55 354L37 372L37 633L55 652L111 596L111 410L111 410M316 74L391 0L93 0L74 18L130 74L316 74L316 74M111 93L55 37L37 56L37 317L55 335L111 279L111 93L111 93Z"  horiz-adv-x="405" vert-adv-y="1000"  />

      
      <glyph glyph-name="uni64" unicode="&#x64;" d="M112 93L37 19L37 317L56 335L112 279L112 93L112 93M372 19L354 0L56 0L130 74L317 74L372 19L372 19M410 56L391 37L335 93L335 279L391 335L410 317L410 56L410 56M410 373L391 354L335 410L335 596L391 652L410 633L410 373L410 373M372 671L317 615L130 615L56 689L354 689L372 671L372 671M112 410L56 354L37 373L37 671L112 596L112 410L112 410Z"  horiz-adv-x="447" vert-adv-y="1000"  />

      
      <glyph glyph-name="uni65" unicode="&#x65;" d="M392 690L317 615L131 615L57 690L392 690L392 690M112 597L112 410L57 354L38 373L38 671L112 597L112 597M327 382L364 345L327 308L121 308L84 345L121 382L327 382L327 382M112 280L112 94L38 19L38 317L57 336L112 280L112 280M392 0L57 0L131 75L317 75L392 0L392 0Z"  horiz-adv-x="412" vert-adv-y="1000"  />

      
      <glyph glyph-name="uni66" unicode="&#x66;" d="M110 279L110 74L36 0L36 316L55 335L110 279L110 279M362 344L325 307L119 307L82 344L119 382L325 382L362 344L362 344M390 689L315 614L129 614L55 689L390 689L390 689M110 596L110 409L55 354L36 372L36 670L110 596L110 596Z"  horiz-adv-x="404" vert-adv-y="1000"  />

      
      <glyph glyph-name="uni67" unicode="&#x67;" d="M373 19L355 0L94 0L75 19L131 74L317 74L373 19L373 19M411 56L392 37L336 93L336 279L392 335L411 317L411 56L411 56M413 689L338 615L131 615L75 671L94 689L413 689L413 689M112 93L57 37L38 56L38 317L57 335L112 279L112 93L112 93M112 410L57 354L38 373L38 633L57 652L112 596L112 410L112 410M364 345L327 307L209 307L172 345L209 382L327 382L364 345L364 345Z"  horiz-adv-x="447" vert-adv-y="1000"  />

      
      <glyph glyph-name="uni68" unicode="&#x68;" d="M411 0L337 75L337 280L393 336L411 317L411 0L411 0M411 690L411 373L393 354L337 410L337 615L411 690L411 690M113 615L113 410L57 354L39 373L39 690L113 615L113 615M365 345L328 308L122 308L85 345L122 382L328 382L365 345L365 345M113 75L39 0L39 317L57 336L113 280L113 75L113 75Z"  horiz-adv-x="447" vert-adv-y="1000"  />

      
      <glyph glyph-name="uni69" unicode="&#x69;" d="M109 372L90 354L34 410L34 633L90 689L109 670L109 372L109 372M109 18L90 0L34 56L34 279L90 335L109 316L109 18L109 18Z"  horiz-adv-x="145" vert-adv-y="1000"  />

      
      <glyph glyph-name="uni6a" unicode="&#x6a;" d="M410 373L392 354L336 410L336 615L410 689L410 373L410 373M410 19L336 93L336 279L392 335L410 317L410 19L410 19M392 0L56 0L131 75L317 75L392 0L392 0M112 93L38 19L38 273L112 199L112 93L112 93Z"  horiz-adv-x="447" vert-adv-y="1000"  />

      
      <glyph glyph-name="uni6b" unicode="&#x6b;" d="M410 316L410 0L336 74L336 279L392 335L410 316M410 689L410 636L182 408L138 408L138 470L358 689L410 689M112 614L112 409L56 354L38 372L38 689L112 614M364 344L327 307L121 307L84 344L121 382L327 382L364 344M112 279L112 74L38 0L38 316Q43 321 47 325.50Q51 330 56 335L112 279Z"  horiz-adv-x="447" vert-adv-y="1000"  />

      
      <glyph glyph-name="uni6c" unicode="&#x6c;" d="M112 410L57 354L38 373L38 690L112 615L112 410L112 410M392 0L57 0L131 75L317 75L392 0L392 0M112 94L38 19L38 317L57 336L112 280L112 94L112 94Z"  horiz-adv-x="408" vert-adv-y="1000"  />

      
      <glyph glyph-name="uni6d" unicode="&#x6d;" d="M463 0L388 75L388 280L444 336L463 317L463 0L463 0M463 671L463 373L444 354L388 410L388 596L463 671L463 671M284 373L246 336L209 373L209 589L284 589L284 373L284 373M444 690L370 615L128 615L53 690L444 690L444 690M109 596L109 410L53 354L34 373L34 671L109 596L109 596M109 75L34 0L34 317L53 336L109 280L109 75L109 75Z"  horiz-adv-x="498" vert-adv-y="1000"  />

      
      <glyph glyph-name="uni6e" unicode="&#x6e;" d="M411 18L393 0L337 56L337 279L393 335L411 316L411 18L411 18M411 372L393 354L337 410L337 633L393 689L411 670L411 372L411 372M311 487L311 410L283 410L139 553L139 633L165 633L311 487L311 487M113 410L57 354L39 372L39 670L57 689L113 633L113 410L113 410M113 56L57 0L39 18L39 316L57 335L113 279L113 56L113 56Z"  horiz-adv-x="447" vert-adv-y="1000"  />

      
      <glyph glyph-name="uni6f" unicode="&#x6f;" d="M411 56L392 38L336 93L336 280L392 336L411 317L411 56L411 56M411 373L392 354L336 410L336 597L392 652L411 634L411 373L411 373M373 671L318 615L131 615L75 671L94 690L355 690L373 671L373 671M113 410L57 354L38 373L38 634L57 652L113 597L113 410L113 410M113 93L57 38L38 56L38 317L57 336L113 280L113 93L113 93M373 19L355 0L94 0L75 19L131 75L318 75L373 19L373 19Z"  horiz-adv-x="447" vert-adv-y="1000"  />

      
      <glyph glyph-name="uni70" unicode="&#x70;" d="M410 372L391 354L335 410L335 596L391 652L410 633L410 372M373 670L317 615L130 615Q111 633 92 651Q73 669 56 689L354 689L373 670M112 410L56 354L37 372L37 670L112 596L112 410M326 382L364 344L326 307L121 307L83 344L121 382L326 382M112 74L37 0L37 316L56 335L112 279L112 74Z"  horiz-adv-x="437" vert-adv-y="1000"  />

      
      <glyph glyph-name="uni71" unicode="&#x71;" d="M251 75L325 0L95 0L77 19L133 75L251 75L251 75M412 53L412 0L360 0L249 111L249 173L293 173L412 53L412 53M412 87L338 162L338 280L393 336L412 317L412 87L412 87M412 373L393 354L338 410L338 597L393 653L412 634L412 373L412 373M375 671L319 615L133 615L77 671L95 690L356 690L375 671L375 671M114 410L58 354L40 373L40 634L58 653L114 597L114 410L114 410M114 94L58 38L40 56L40 317L58 336L114 280L114 94L114 94Z"  horiz-adv-x="447" vert-adv-y="1000"  />

      
      <glyph glyph-name="uni72" unicode="&#x72;" d="M411 53L411 0L358 0L139 220L139 282L183 282L411 53L411 53M113 75L39 0L39 317L57 336L113 280L113 75L113 75M374 671L318 615L132 615L57 690L355 690L374 671L374 671M411 373L393 354L337 410L337 596L393 652L411 634L411 373L411 373M328 382L365 345L328 308L122 308L85 345L122 382L328 382L328 382M113 410L57 354L39 373L39 671L113 596L113 410L113 410Z"  horiz-adv-x="447" vert-adv-y="1000"  />

      
      <glyph glyph-name="uni73" unicode="&#x73;" d="M411 689L336 615L131 615L75 671L94 689L411 689L411 689M112 410L57 354L38 373L38 634L57 652L112 596L112 410L112 410M364 345L327 307L121 307L84 345L121 382L327 382L364 345L364 345M411 56L392 37L336 93L336 279L392 335L411 317L411 56L411 56M373 19L355 0L38 0L112 74L132 75L317 75L373 19L373 19Z"  horiz-adv-x="447" vert-adv-y="1000"  />

      
      <glyph glyph-name="uni74" unicode="&#x74;" d="M255 19L236 0L180 56L180 279L236 335L255 317L255 19L255 19M255 373L236 354L180 410L180 591L255 591L255 373L255 373M399 689L418 671L362 615L74 615L18 671L36 689L399 689L399 689Z"  horiz-adv-x="435" vert-adv-y="1000"  />

      
      <glyph glyph-name="uni75" unicode="&#x75;" d="M390 0L55 0L129 74L316 74L390 0L390 0M409 317L409 19L334 93L334 279L390 335L409 317L409 317M409 373L390 354L334 410L334 615L409 689L409 373L409 373M111 410L55 354L36 373L36 689L111 615L111 410L111 410M111 279L111 93L36 19L36 317L55 335L111 279L111 279Z"  horiz-adv-x="447" vert-adv-y="1000"  />

      
      <glyph glyph-name="uni76" unicode="&#x76;" d="M395 339L404 314Q366 236 329.50 157.50Q293 79 257 0L234 0L234 127Q234 130 246 156Q258 182 273 214Q288 246 302 274.50Q316 303 320 312L395 339M408 373L390 354L334 410L334 615L408 690L408 373M110 410L54 354L36 373L36 690L110 615L110 410M210 127L210 0L187 0L41 314L50 339L124 312Q128 303 142 274.50Q156 246 171 214Q186 182 198 156Q210 130 210 127Z"  horiz-adv-x="439" vert-adv-y="1000"  />

      
      <glyph glyph-name="uni77" unicode="&#x77;" d="M464 373L445 354L389 410L389 615L464 690L464 373L464 373M464 317L464 19L389 94L389 280L445 336L464 317L464 317M445 0L54 0L129 75L371 75L445 0L445 0M289 101L215 101L215 317L252 354L289 317L289 101L289 101M110 410L54 354L35 373L35 690L110 615L110 410L110 410M110 280L110 94L35 19L35 317L54 336L110 280L110 280Z"  horiz-adv-x="498" vert-adv-y="1000"  />

      
      <glyph glyph-name="uni78" unicode="&#x78;" d="M261 333L390 24L380 0L320 0Q317 6 309 25Q301 44 290 70Q279 96 267 124.50Q255 153 245 177Q235 201 228.50 216.50Q222 232 222 233L222 333L261 333M198 333L198 233Q198 232 191.50 216.50Q185 201 175 177Q165 153 153 124.50Q141 96 130 70Q119 44 111 25Q103 6 100 0L40 0L30 24L159 333L198 333M198 456L198 357L159 357L30 665L40 689L100 689Q102 683 110.50 664Q119 645 130 619Q141 593 153 564.50Q165 536 175 512Q185 488 191.50 472Q198 456 198 456M380 689L390 665L261 357L222 357L222 456Q222 456 228.50 472Q235 488 245 512Q255 536 267 564.50Q279 593 290 619Q301 645 309.50 664Q318 683 320 689L380 689Z"  horiz-adv-x="416" vert-adv-y="1000"  />

      
      <glyph glyph-name="uni79" unicode="&#x79;" d="M410 372L391 354L335 410L335 614L410 689L410 372L410 372M410 56L391 37L335 93L335 279L391 335L410 316L410 56L410 56M373 18L354 0L37 0L112 74L317 74L373 18L373 18M363 344L326 307L120 307L83 344L120 382L326 382L363 344L363 344M111 410L55 354L37 372L37 689L111 614L111 410L111 410Z"  horiz-adv-x="447" vert-adv-y="1000"  />

      
      <glyph glyph-name="uni7a" unicode="&#x7a;" d="M337 74L393 18L374 0L55 0L25 30L45 74L337 74M209 333L226 292L138 99L56 99L154 314L186 333L209 333M362 590Q356 576 343.50 546.50Q331 517 317.50 485.50Q304 454 291 427.50Q278 401 271 392Q270 391 263 386Q256 381 247.50 375Q239 369 231.50 363.50Q224 358 221 356L190 356L182 375L280 590L362 590M393 658L373 615L81 615L25 671L44 689L362 689L393 658Z"  horiz-adv-x="422" vert-adv-y="1000"  />

      
      <glyph glyph-name="uni31" unicode="&#x31;" d="M109 372L90 354L34 410L34 633L90 689L109 670L109 372L109 372M109 18L90 0L34 56L34 279L90 335L109 316L109 18L109 18Z"  horiz-adv-x="145" vert-adv-y="1000"  />

      
      <glyph glyph-name="uni30" unicode="&#x30;" d="M411 56L392 38L336 93L336 280L392 336L411 317L411 56L411 56M411 373L392 354L336 410L336 597L392 652L411 634L411 373L411 373M373 671L318 615L131 615L75 671L94 690L355 690L373 671L373 671M113 410L57 354L38 373L38 634L57 652L113 597L113 410L113 410M113 93L57 38L38 56L38 317L57 336L113 280L113 93L113 93M373 19L355 0L94 0L75 19L131 75L318 75L373 19L373 19Z"  horiz-adv-x="447" vert-adv-y="1000"  />

      
      <glyph glyph-name="uni35" unicode="&#x35;" d="M411 689L336 615L131 615L75 671L94 689L411 689L411 689M112 410L57 354L38 373L38 634L57 652L112 596L112 410L112 410M364 345L327 307L121 307L84 345L121 382L327 382L364 345L364 345M411 56L392 37L336 93L336 279L392 335L411 317L411 56L411 56M373 19L355 0L38 0L112 74L132 75L317 75L373 19L373 19Z"  horiz-adv-x="447" vert-adv-y="1000"  />

      
      <glyph glyph-name="uni33" unicode="&#x33;" d="M358 0L23 0L98 74L284 74L358 0L358 0M377 316L377 18L302 93L302 279L358 335L377 316L377 316M294 382L331 344L294 307L88 307L51 344L88 382L294 382L294 382M377 670L377 372L358 354L302 410L302 596L377 670L377 670M358 689L284 615L98 615L23 689L358 689L358 689Z"  horiz-adv-x="412" vert-adv-y="1000"  />

      
      <glyph glyph-name="uni34" unicode="&#x34;" d="M402 0L327 75L327 280L383 336L402 317L402 0L402 0M402 373L383 354L327 410L327 615L402 690L402 373L402 373M104 410L48 354L29 373L29 690L104 615L104 410L104 410M355 345L318 308L112 308L75 345L112 382L318 382L355 345L355 345Z"  horiz-adv-x="436" vert-adv-y="1000"  />

      
      <glyph glyph-name="uni32" unicode="&#x32;" d="M410 372L391 354L335 409L335 596L391 652L410 633L410 372L410 372M373 670L317 614L112 614L37 689L354 689L373 670L373 670M112 93L56 37L37 55L37 316L56 335L112 279L112 93L112 93M410 0L93 0L74 18L130 74L336 74L410 0L410 0M364 344L326 307L121 307L83 344L121 382L326 382L364 344L364 344Z"  horiz-adv-x="447" vert-adv-y="1000"  />

      
      <glyph glyph-name="uni36" unicode="&#x36;" d="M373 18L354 0L94 0L75 18L131 74L317 74L373 18L373 18M410 55L392 37L336 93L336 279L392 335L410 316L410 55L410 55M411 689L337 614L131 614L75 670L94 689L411 689L411 689M327 382L364 344L327 307L121 307L84 344L121 382L327 382L327 382M112 93L56 37L38 55L38 316L56 335L112 279L112 93L112 93M112 409L56 354L38 372L38 633L56 652L112 596L112 409L112 409Z"  horiz-adv-x="447" vert-adv-y="1000"  />

      
      <glyph glyph-name="uni39" unicode="&#x39;" d="M410 373L391 354L335 410L335 596L391 652L410 634L410 373L410 373M373 671L317 615L130 615L74 671L93 690L354 690L373 671L373 671M112 410L56 354L37 373L37 634L56 652L112 596L112 410L112 410M326 382L364 345L326 308L121 308L83 345L121 382L326 382L326 382M373 19L354 0L37 0L111 74L132 75L317 75L373 19L373 19M410 56L391 37L335 93L335 280L391 336L410 317L410 56L410 56Z"  horiz-adv-x="447" vert-adv-y="1000"  />

      
      <glyph glyph-name="uni37" unicode="&#x37;" d="M374 0L299 74L299 279L355 335L374 316L374 0L374 0M374 372L355 354L299 410L299 596L374 670L374 372L374 372M355 689L281 615L94 615L20 689L355 689L355 689Z"  horiz-adv-x="412" vert-adv-y="1000"  />

      
      <glyph glyph-name="uni38" unicode="&#x38;" d="M373 18L355 0L94 0L75 18L131 74L317 74L373 18L373 18M410 56L392 37L336 93L336 279L392 335L410 316L410 56L410 56M410 372L392 354L336 410L336 596L392 652L410 633L410 372L410 372M373 670L317 615L131 615L75 670L94 689L355 689L373 670L373 670M112 410L56 354L38 372L38 633L56 652L112 596L112 410L112 410M327 382L364 344L327 307L121 307L84 344L121 382L327 382L327 382M112 93L56 37L38 56L38 316L56 335L112 279L112 93L112 93Z"  horiz-adv-x="447" vert-adv-y="1000"  />

      
      <glyph glyph-name="uni24" unicode="&#x24;" d="M411 56L392 38L336 94L336 280L392 336L411 317L411 56L411 56M257-24L257-81L239-100L183-44L183-24L257-24L257-24M374 19L355 0L38 0L112 75L318 75L374 19L374 19M327 382L365 345L327 308L122 308L84 345L122 382L327 382L327 382M257 99L183 99L183 284L257 284L257 99L257 99M257 775L257 714L183 714L183 737L239 793L257 775L257 775M131 615L75 671L94 690L411 690L336 615L131 615L131 615M113 410L57 355L38 373L38 634L57 653L113 597L113 410L113 410M257 407L183 407L183 591L257 591L257 407L257 407Z"  horiz-adv-x="447" vert-adv-y="1000"  />

      
      <glyph glyph-name="uni21" unicode="&#x21;" d="M114 373L96 355L40 410L40 634L96 690L114 671L114 373L114 373M114 0L40 0L40 74L114 74L114 0L114 0M114 121L96 102L40 158L40 280L96 336L114 317L114 121L114 121Z"  horiz-adv-x="153" vert-adv-y="1000"  />

      
      <glyph glyph-name="uni3f" unicode="&#x3f;" d="M338 671L282 615L98 615L24 689L319 689L338 671L338 671M375 372L357 354L301 410L301 596L357 652L375 633L375 372L375 372M292 382L329 344L292 307L210 307L173 344L210 382L292 382L292 382M201 157L145 102L127 120L127 317L145 335L201 279L201 157L201 157M201 73L201 0L127 0L127 73L201 73L201 73Z"  horiz-adv-x="414" vert-adv-y="1000"  />

      
      <glyph glyph-name="uni2d" unicode="&#x2d;" d="M209 376L246 339L209 302L61 302L24 339L61 376L209 376L209 376Z"  horiz-adv-x="267" vert-adv-y="1000"  />

      
      <glyph glyph-name="uni3a" unicode="&#x3a;" d="M118 186L44 186L44 260L118 260L118 186L118 186M118 470L44 470L44 544L118 544L118 470L118 470Z"  horiz-adv-x="160" vert-adv-y="1000"  />

      
      <glyph glyph-name="uni2e" unicode="&#x2e;" d="M111 73L111 0L37 0L37 73L111 73L111 73Z"  horiz-adv-x="158" vert-adv-y="1000"  />

      
      <glyph glyph-name="uni2c" unicode="&#x2c;" d="M115-54L78-92L40-54L40 71L115 71L115-54L115-54Z"  horiz-adv-x="158" vert-adv-y="1000"  />

      
      <glyph glyph-name="uni22" unicode="&#x22;" d="M107 555L70 517L32 555L32 680L107 680L107 555L107 555M221 554L184 516L146 554L146 679L221 679L221 554L221 554Z"  horiz-adv-x="259" vert-adv-y="1000"  />

      
      <glyph glyph-name="uni3b" unicode="&#x3b;" d="M118 470L44 470L44 544L118 544L118 470L118 470M118 137L81 99L43 137L43 262L118 262L118 137L118 137Z"  horiz-adv-x="160" vert-adv-y="1000"  />

      
      <glyph glyph-name="uni28" unicode="&#x28;" d="M263 796L188 722L131 722L75 778L94 796L263 796L263 796M112 410L56 354L38 372L38 740L56 759L112 703L112 410L112 410M188-34L263-108L94-108L75-90L131-34L188-34L188-34M112-15L56-71L38-52L38 317L56 335L112 279L112-15L112-15Z"  horiz-adv-x="150" vert-adv-y="1000"  />

      
      <glyph glyph-name="uni29" unicode="&#x29;" d="M-108-106L-33-32L24-32L80-88L61-106L-108-106L-108-106M43 280L99 336L117 318L117-50L99-69L43-13L43 280L43 280M-33 724L-108 798L61 798L80 780L24 724L-33 724L-33 724M43 705L99 761L117 742L117 373L99 355L43 411L43 705L43 705Z"  horiz-adv-x="160" vert-adv-y="1000"  />

      
      <glyph glyph-name="uni44" unicode="&#x44;" d="M112 93L37 19L37 317L56 335L112 279L112 93L112 93M372 19L354 0L56 0L130 74L317 74L372 19L372 19M410 56L391 37L335 93L335 279L391 335L410 317L410 56L410 56M410 373L391 354L335 410L335 596L391 652L410 633L410 373L410 373M372 671L317 615L130 615L56 689L354 689L372 671L372 671M112 410L56 354L37 373L37 671L112 596L112 410L112 410Z"  horiz-adv-x="447" vert-adv-y="1000"  />

      
      <glyph glyph-name="uni42" unicode="&#x42;" d="M373 18L355 0L57 0L131 74L318 74L373 18M411 55L392 37L336 93L336 279L392 335L411 316L411 55M411 372L392 354L336 409L336 596L392 652L411 633L411 372M373 670L318 614L131 614Q112 633 93.50 651Q75 669 57 689L355 689L373 670M113 409L57 354L38 372L38 670L113 596L113 409M365 344L327 307L122 307L84 344L122 382L327 382L365 344M113 93L38 18L38 316L57 335L113 279L113 93Z"  horiz-adv-x="447" vert-adv-y="1000"  />

      
      <glyph glyph-name="uni43" unicode="&#x43;" d="M391 689L316 615L130 615L74 671L93 689L391 689L391 689M111 410L55 354L37 372L37 633L55 652L111 596L111 410L111 410M316 74L391 0L93 0L74 18L130 74L316 74L316 74M111 93L55 37L37 56L37 317L55 335L111 279L111 93L111 93Z"  horiz-adv-x="405" vert-adv-y="1000"  />

      
      <glyph glyph-name="uni41" unicode="&#x41;" d="M409 0L335 74L335 279L391 335L409 316L409 0L409 0M409 670L409 372L391 354L335 409L335 596L409 670L409 670M391 689L316 614L130 614L55 689L391 689L391 689M111 596L111 409L55 354L37 372L37 670L111 596L111 596M363 344L326 307L120 307L83 344L120 382L326 382L363 344L363 344M111 74L37 0L37 316L55 335L111 279L111 74L111 74Z"  horiz-adv-x="447" vert-adv-y="1000"  />

      

  </font>
</defs>
</svg>
